<svg xmlns="http://www.w3.org/2000/svg" style="display: none;">
  <!-- Footsteps Icon -->
  <symbol id="footsteps-icon" viewBox="0 0 512 512">
    <path d="M200 246.84c8.81 58.62-7.33 90.67-52.91 97.41-50.65 7.49-71.52-26.44-80.33-85.06-11.85-78.88 16-127.94 55.71-131.1 36.14-2.87 68.71 60.14 77.53 118.75zM223.65 409.53c3.13 33.28-14.86 64.34-42 69.66-27.4 5.36-58.71-16.37-65.09-49.19s17.75-34.56 47.32-40.21 55.99-20.4 59.77 19.74zM312 150.83c-8.81 58.62 7.33 90.67 52.9 97.41 50.66 7.49 71.52-26.44 80.33-85.06 11.86-78.89-16-128.22-55.7-131.1-36.4-2.64-68.71 60.13-77.53 118.75zM288.35 313.53c-3.13 33.27 14.86 64.34 42 69.66 27.4 5.36 58.71-16.37 65.09-49.19s-17.75-34.56-47.32-40.22-55.99-20.4-59.77 19.75z" 
    fill="none" stroke="currentColor" stroke-miterlimit="10" stroke-width="32"/>
  </symbol>

  <!-- Location Icon -->
  <symbol id="location-icon" viewBox="0 0 512 512">
    <path d="M256 48c-79.5 0-144 61.39-144 137 0 87 96 224.87 131.25 272.49a15.77 15.77 0 0025.5 0C304 409.89 400 272.07 400 185c0-75.61-64.5-137-144-137z" 
    fill="none" stroke="currentColor" stroke-linecap="round" stroke-linejoin="round" stroke-width="32"/>
    <circle cx="256" cy="192" r="48" fill="none" stroke="currentColor" stroke-linecap="round" stroke-linejoin="round" stroke-width="32"/>
  </symbol>

  <!-- Flag Icon -->
  <symbol id="flag-icon" viewBox="0 0 512 512">
    <path d="M80 464V68.14a8 8 0 014-6.9C91.81 56.66 112.92 48 160 48c64 0 145 48 192 48a199.53 199.53 0 0077.23-15.77 2 2 0 012.77 1.85v219.36a4 4 0 01-2.39 3.65C421.37 308.7 392.33 320 352 320c-48 0-128-32-192-32s-80 16-80 16" 
    fill="none" stroke="currentColor" stroke-linecap="round" stroke-miterlimit="10" stroke-width="32"/>
  </symbol>
</svg>

