<svg width="88" height="81" viewBox="0 0 88 81" fill="none" xmlns="http://www.w3.org/2000/svg">
<path d="M27.8094 13.0242L6.59759 34.2361C6.59713 34.2365 6.59666 34.237 6.5962 34.2374L0.939348 39.8943C0.353563 40.4801 0.353563 41.4298 0.939348 42.0156L6.5962 47.6725C6.59688 47.6732 6.59755 47.6738 6.59823 47.6745L20.7383 61.8146C21.3241 62.4004 22.2739 62.4004 22.8597 61.8146L28.5165 56.1578C29.1023 55.572 29.1023 54.6222 28.5165 54.0364L15.435 40.955L35.5876 20.8024C36.1734 20.2166 36.1734 19.2669 35.5876 18.6811L29.9307 13.0242C29.3449 12.4385 28.3952 12.4385 27.8094 13.0242Z" fill="#3B924D" stroke="black"/>
<path d="M85.7238 59.3752L85.7238 47.9636C85.7238 47.9628 85.7238 47.9619 85.7238 47.961L85.7238 32.7894L85.7238 21.3752C85.7238 20.5468 85.0522 19.8752 84.2238 19.8752L57.638 19.8752C56.3016 19.8752 55.6324 21.4909 56.5773 22.4359L74.5167 40.3752L56.5773 58.3146C55.6324 59.2595 56.3016 60.8752 57.638 60.8752L84.2238 60.8752C85.0522 60.8752 85.7238 60.2036 85.7238 59.3752Z" fill="#E2701B" stroke="black"/>
<rect x="64.2866" y="40.2812" width="28" height="28" rx="2.5" transform="rotate(135 64.2866 40.2812)" fill="#336AB9" stroke="black"/>
</svg>
